<svg width="88" height="89" viewBox="0 0 88 89" fill="none" xmlns="http://www.w3.org/2000/svg">
<circle cx="44" cy="44.2876" r="44" fill="#35B6FE" fill-opacity="0.1"/>
<circle cx="44" cy="44.2876" r="43.5" stroke="#55C2FF" stroke-opacity="0.3"/>
<path fill-rule="evenodd" clip-rule="evenodd" d="M29.674 24.533C29.4568 24.7208 29.3083 24.9941 29.2594 25.2963C29.1926 25.7091 29.1108 25.8043 28.5929 26.072C28.2226 26.2635 27.8484 26.593 27.5886 26.9564L27.1743 27.5356H26.0316C24.9376 27.5356 24.8743 27.5502 24.5475 27.8785C23.8449 28.5845 23.8146 29.7531 24.4792 30.5298C24.7541 30.8512 24.818 30.8663 26.0716 30.9068L27.3777 30.9491L27.7647 31.4707C28.3605 32.2734 29.2871 32.6804 30.5192 32.6804C31.3636 32.6804 31.5854 32.6324 32.2026 32.3152C32.6567 32.0818 33.0454 31.7675 33.2785 31.4449L33.6436 30.9399L36.5657 30.9325L39.4878 30.9251L39.4883 33.437C39.4887 35.7132 39.5107 35.9853 39.7235 36.3358C40.3859 37.4273 41.8849 37.4872 42.592 36.4506C42.8548 36.0654 42.8618 35.971 42.8618 32.839C42.8618 29.3229 42.8343 29.1521 42.1477 28.4068C41.9451 28.187 41.5214 27.8875 41.2059 27.7412C40.6654 27.4905 40.4353 27.473 37.1819 27.4353L33.731 27.3953L33.3546 26.8687C33.1118 26.529 32.7663 26.2422 32.3819 26.0611C31.8842 25.8266 31.7849 25.7256 31.7808 25.4493C31.7671 24.529 30.3779 23.9248 29.674 24.533ZM49.2889 27.8022C49.1497 27.9551 48.6857 28.6523 48.2578 29.3514C46.6995 31.8971 44.5752 35.1116 42.2579 38.4306C39.4912 42.3932 38.5177 43.9011 37.6158 45.6202C35.5478 49.5624 35.1679 52.7452 36.3576 56.1653C37.8323 60.405 41.5193 63.6602 46.1505 64.8113C47.8475 65.2332 48.8594 65.3401 50.4533 65.2658C55.0967 65.0493 59.2597 62.8884 61.6885 59.4338C63.4876 56.8747 64.2379 54.0848 63.9345 51.0811C63.6257 48.0243 62.4687 45.6711 58.1612 39.3385C55.0873 34.8194 53.7505 32.7801 52.0332 29.9902C50.6236 27.7002 50.5394 27.5981 50.0263 27.5601C49.6464 27.5319 49.4872 27.5842 49.2889 27.8022ZM48.312 43.7711C48.0289 43.8383 47.8288 43.9443 47.8672 44.0068C47.9055 44.0691 47.9927 44.1202 48.0609 44.1202C48.3249 44.1202 49.2245 44.8836 49.4607 45.3081C49.5974 45.5536 49.7886 46.0617 49.8856 46.4372C49.9826 46.8127 50.2272 47.3614 50.4292 47.6563C50.6311 47.9512 51.0272 48.646 51.3092 49.2003L51.8219 50.2082L51.5635 50.4025C51.4215 50.5093 51.1813 50.6896 51.0298 50.8031C50.7657 51.0013 50.8267 51.0107 52.5319 51.0352C53.5095 51.0492 54.3931 51.0653 54.4956 51.0709C54.624 51.0778 54.9058 50.5546 55.3994 49.3929C55.7939 48.4646 56.1167 47.6891 56.1167 47.6697C56.1167 47.6502 55.8462 47.7415 55.5155 47.8725L54.9143 48.1105L54.7488 47.8404C54.6577 47.6919 54.3327 47.1006 54.0265 46.5264C52.8823 44.3811 51.9632 43.7361 49.9713 43.6807C49.3417 43.6632 48.5949 43.7039 48.312 43.7711ZM46.778 44.9279C45.9333 45.1147 46.0199 45.0017 44.5213 47.873C44.0522 48.7718 43.6124 49.5795 43.544 49.6677C43.3409 49.9298 43.6822 50.0481 44.6471 50.0501C45.1319 50.0511 45.6364 50.1099 45.7681 50.1808C45.8998 50.2516 46.2024 50.6154 46.4405 50.9893L46.8734 51.6691L47.0982 51.3901C47.4215 50.9891 48.8145 48.6396 49.1231 47.9748L49.3849 47.4109L49.1162 46.7642C48.5074 45.2993 47.7587 44.7111 46.778 44.9279ZM55.9944 50.9031C55.4422 52.0499 55.3077 52.1537 54.3004 52.2109C53.8413 52.237 53.4657 52.2816 53.4657 52.31C53.4657 52.4186 53.9465 53.3009 54.5119 54.2297C54.8357 54.7616 55.2016 55.4147 55.3252 55.6811C55.593 56.2584 55.7014 56.3426 56.1796 56.3451C56.741 56.3478 58.1537 56.7771 58.5359 57.0609C58.7243 57.2008 58.9274 57.3153 58.9871 57.3153C59.0469 57.3153 59.1259 56.98 59.1629 56.5701C59.2422 55.6921 58.95 54.3896 58.4172 53.2455C58.1359 52.6417 56.804 50.5017 56.4857 50.1421C56.4412 50.0919 56.2201 50.4344 55.9944 50.9031ZM41.8978 51.2394C41.8978 51.2933 41.9775 51.443 42.0747 51.5723C42.3329 51.9153 42.305 52.0633 41.8347 52.841C40.6585 54.7863 40.2975 56.5913 40.8115 57.9565C41.0764 58.6596 42.0034 59.7679 42.5907 60.0835C42.8602 60.2284 42.8618 60.2243 42.8623 59.3472C42.8629 58.3375 42.8843 58.2875 44.4108 55.7416C44.9497 54.8427 45.3911 54.0665 45.3915 54.0165C45.3919 53.9665 45.6128 53.9257 45.8824 53.9257C46.4684 53.9257 46.4708 53.9457 45.6743 52.2612L45.1447 51.1415H43.5213C42.6284 51.1415 41.8978 51.1855 41.8978 51.2394ZM51.1341 55.9492C50.9445 55.9976 50.9228 56.0837 50.9888 56.5257C51.0415 56.8788 51.0164 57.0983 50.9104 57.2106C50.8246 57.3015 50.5553 57.6819 50.3119 58.0559L49.8694 58.736L50.2975 59.4481C50.5328 59.8397 50.861 60.4733 51.0268 60.8562C51.368 61.6439 51.5962 61.7412 51.7072 61.1464L51.783 60.7406L53.5965 60.6557C55.6231 60.5609 56.5595 60.3387 57.4617 59.7384C57.9413 59.4193 58.6472 58.6064 58.6472 58.3731C58.6472 58.1955 57.522 57.6503 56.4623 57.3143C55.4373 56.9893 55.1777 56.9563 53.6413 56.9543L51.949 56.9521L51.7649 56.4449C51.5721 55.9134 51.4989 55.856 51.1341 55.9492ZM44.546 57.1035C44.0399 57.9326 43.8016 58.7895 43.8516 59.5998C43.8874 60.1784 43.9561 60.4127 44.1266 60.5379C44.4284 60.7596 49.6098 60.7854 49.6098 60.5652C49.6098 60.4883 49.42 60.0846 49.188 59.6679C48.9561 59.2511 48.7663 58.8278 48.7663 58.7269C48.7663 58.6262 48.9802 58.1734 49.2415 57.7206C49.5814 57.132 49.6758 56.8714 49.5729 56.8057C49.4937 56.7551 48.3844 56.7129 47.1076 56.7119L44.7863 56.71L44.546 57.1035Z" fill="url(#paint0_linear_227_1937)"/>
<defs>
<linearGradient id="paint0_linear_227_1937" x1="39" y1="24.2876" x2="38.9415" y2="65.2876" gradientUnits="userSpaceOnUse">
<stop stop-color="#68CCFF"/>
<stop offset="1" stop-color="#6970A7"/>
</linearGradient>
</defs>
</svg>
