<svg width="88" height="89" viewBox="0 0 88 89" fill="none" xmlns="http://www.w3.org/2000/svg">
<circle cx="44" cy="44.2876" r="44" fill="#35B6FE" fill-opacity="0.1"/>
<circle cx="44" cy="44.2876" r="43.5" stroke="#55C2FF" stroke-opacity="0.3"/>
<path fill-rule="evenodd" clip-rule="evenodd" d="M43.851 22.8113C40.6195 24.3346 25.112 32.0626 24.457 32.4761C23.4128 33.1352 22.8457 34.5085 23.0367 35.9153C23.124 36.5595 23.2929 36.9548 25.3427 41.3149C26.2095 43.1582 27.0671 44.9863 27.2485 45.3774C28.6476 48.3909 29.9426 50.8938 30.2527 51.1836C31.0797 51.9563 32.3215 52.3438 33.318 52.1402C33.9981 52.0013 34.5754 51.7364 39.1283 49.4741C40.9717 48.5582 43.4625 47.3358 44.6635 46.7577C49.3106 44.5206 56.14 41.1253 56.14 41.0522C56.14 41.01 55.7973 40.2766 55.3783 39.4226C54.9594 38.5685 54.6173 37.7994 54.6182 37.7134C54.6192 37.6132 55.1024 37.3286 55.9639 36.9209C56.7032 36.571 57.3588 36.2854 57.4208 36.2861C57.4829 36.2869 57.6814 36.5648 57.862 36.9038C58.0427 37.2427 58.2445 37.5408 58.3105 37.5661C58.4442 37.6174 61.5551 35.936 61.6055 35.7852C61.6523 35.6451 56.1257 24.6971 56.0255 24.7312C55.9487 24.7573 53.0033 26.2447 52.8959 26.3115C52.8712 26.327 52.9952 26.6124 53.1713 26.9458L53.4915 27.552L53.1654 27.7228C52.3155 28.1676 50.6263 28.9791 50.6039 28.9533C50.59 28.9373 49.9563 27.6824 49.1954 26.1646C48.4346 24.6467 47.6825 23.2756 47.5241 23.1177C47.0675 22.6623 46.3138 22.3356 45.6283 22.296C45.067 22.2635 44.9269 22.304 43.851 22.8113ZM38.5443 30.2672L37.5541 30.3026V32.9396V35.5766H35.2839C34.0352 35.5766 32.7326 35.6059 32.3893 35.6418L31.765 35.7071V36.9621V38.2172H34.7103H37.6557V40.9594V43.7016H38.976H40.2963V40.9594V38.2172H43.2924H46.2885V36.9477V35.6781H43.294H40.2996L40.2725 32.9613L40.2455 30.2446L39.89 30.2382C39.6945 30.2346 39.089 30.2477 38.5443 30.2672ZM60.3381 39.9184C58.5126 42.2007 57.6892 43.9007 57.7908 45.1772C57.8734 46.2144 58.4652 47.0747 59.3889 47.5002C60.0587 47.8088 61.3846 47.798 62.0814 47.4784C62.972 47.0698 63.4438 46.4604 63.6638 45.4343C63.9086 44.2928 63.27 42.818 61.4721 40.3729C61.1369 39.9172 60.8132 39.5427 60.7527 39.5409C60.6923 39.539 60.5057 39.709 60.3381 39.9184ZM53.3839 46.5553C52.2376 47.9271 51.5267 48.9645 51.0243 49.9985C50.6183 50.8341 50.6049 50.8942 50.6049 51.8774C50.6049 52.7772 50.6364 52.9572 50.8812 53.4557C51.2529 54.2126 51.9662 54.9339 52.668 55.263C53.1736 55.4999 53.3719 55.5335 54.2611 55.5326C55.1622 55.5317 55.3411 55.5 55.8481 55.2519C56.5269 54.9197 57.2898 54.1395 57.587 53.4736C57.8776 52.8227 57.9459 51.5419 57.7297 50.7983C57.4065 49.6866 56.4382 48.1655 54.8476 46.2706L54.2333 45.5388L53.3839 46.5553ZM47.6596 56.3608C47.2685 56.4436 46.5602 56.6879 46.0853 56.9037C45.0269 57.3849 44.2562 57.5414 43.1638 57.4972C42.7036 57.4785 42.3271 57.4732 42.3273 57.4851C42.3274 57.4972 42.9015 58.3057 43.603 59.2818L44.8785 61.0565L45.3549 60.7784C46.5738 60.0672 47.5176 59.7439 48.5777 59.6744C49.6016 59.6073 50.194 59.7335 51.4999 60.2971C53.6487 61.2243 54.7099 61.2123 57.1469 60.2334C59.2508 59.3883 60.3729 59.4357 62.3843 60.4546L63.5033 61.0214L64.7504 59.2932L65.9975 57.5649L64.852 57.5031C63.6851 57.4401 63.2936 57.3395 62.3438 56.8582C61.1343 56.2453 59.3895 56.0305 58.1758 56.3449C57.8549 56.4281 57.2433 56.6553 56.8165 56.8497C54.8774 57.7334 53.6013 57.7234 51.5694 56.8085C50.184 56.1846 49.0859 56.0589 47.6596 56.3608ZM47.8846 62.0367C47.3887 62.2187 46.2878 62.8052 46.2908 62.8856C46.2921 62.9198 46.5678 63.3133 46.9033 63.7602C47.2389 64.2071 47.654 64.7897 47.8256 65.0551L48.1377 65.5375H54.1221H60.1064L61.0431 64.2625C61.5583 63.5612 61.9799 62.9328 61.9799 62.866C61.9799 62.7992 61.6371 62.565 61.2182 62.3455C60.5728 62.0074 60.34 61.9403 59.6947 61.9062C58.8913 61.8638 58.6544 61.9245 57.1049 62.5699C56.0413 63.0129 55.3797 63.1477 54.3119 63.1388C53.1039 63.1289 52.3877 62.9808 51.1635 62.4879C50.6328 62.2742 50.0158 62.0506 49.7924 61.9909C49.2417 61.8438 48.3518 61.8651 47.8846 62.0367Z" fill="url(#paint0_linear_227_1927)"/>
<defs>
<linearGradient id="paint0_linear_227_1927" x1="39.1241" y1="22.2876" x2="39.0635" y2="65.5375" gradientUnits="userSpaceOnUse">
<stop stop-color="#68CCFF"/>
<stop offset="1" stop-color="#6970A7"/>
</linearGradient>
</defs>
</svg>
