<svg width="20" height="20" viewBox="0 0 20 20" fill="none" xmlns="http://www.w3.org/2000/svg">
<path d="M1.51205 6.79842L0.75 6.32946V7.22425V14.375C0.75 16.0319 2.09315 17.375 3.75 17.375H16.25C17.9069 17.375 19.25 16.0319 19.25 14.375V7.22425V6.32946L18.488 6.79842L11.0482 11.3767C10.4054 11.7723 9.59462 11.7723 8.95181 11.3767L1.51205 6.79842ZM19.012 6.18235L19.25 6.03592V5.75652V5.625C19.25 3.96815 17.9069 2.625 16.25 2.625H3.75C2.09315 2.625 0.75 3.96815 0.75 5.625V5.75652V6.03592L0.987951 6.18235L9.08283 11.1638C9.64529 11.5099 10.3547 11.5099 10.9172 11.1638L19.012 6.18235Z" stroke="#01A1DE"/>
</svg>
