<svg width="128" height="52" viewBox="0 0 128 52" fill="none" xmlns="http://www.w3.org/2000/svg">
<g clip-path="url(#clip0_227_1619)">
<g filter="url(#filter0_bddd_227_1619)">
<path d="M16.4737 9.5C20.8857 6.95272 23.0918 5.67908 25.5041 5.55931C25.8345 5.5429 26.1655 5.5429 26.4959 5.55931C28.9082 5.67908 31.1143 6.95272 35.5263 9.5C39.9383 12.0473 42.1443 13.3209 43.4542 15.3502C43.6336 15.6281 43.7991 15.9148 43.9501 16.2091C45.0526 18.3582 45.0526 20.9054 45.0526 26C45.0526 31.0946 45.0526 33.6418 43.9501 35.7909C43.7991 36.0852 43.6336 36.3719 43.4542 36.6498C42.1443 38.6791 39.9383 39.9527 35.5263 42.5C31.1143 45.0473 28.9082 46.3209 26.4959 46.4407C26.1655 46.4571 25.8345 46.4571 25.5041 46.4407C23.0918 46.3209 20.8857 45.0473 16.4737 42.5C12.0617 39.9527 9.85569 38.6791 8.54578 36.6498C8.36638 36.3719 8.20089 36.0852 8.0499 35.7909C6.94744 33.6418 6.94744 31.0946 6.94744 26C6.94744 20.9054 6.94744 18.3582 8.0499 16.2091C8.20089 15.9148 8.36638 15.6281 8.54578 15.3502C9.85569 13.3209 12.0617 12.0473 16.4737 9.5Z" fill="black" fill-opacity="0.6" shape-rendering="crispEdges"/>
<path d="M16.7237 9.93301C18.9373 8.65499 20.5696 7.71312 21.9493 7.07288C23.3202 6.43668 24.4096 6.11427 25.5289 6.05869C25.8428 6.04311 26.1572 6.04311 26.4711 6.05869C27.5904 6.11427 28.6798 6.43668 30.0507 7.07288C31.4304 7.71312 33.0627 8.65499 35.2763 9.93301C37.4899 11.211 39.1217 12.1537 40.366 13.0284C41.6024 13.8976 42.4263 14.6798 43.0341 15.6214C43.2046 15.8854 43.3618 16.1577 43.5052 16.4373C44.0168 17.4345 44.2822 18.5391 44.4167 20.0445C44.5521 21.5594 44.5526 23.444 44.5526 26C44.5526 28.556 44.5521 30.4406 44.4167 31.9555C44.2822 33.4609 44.0168 34.5655 43.5052 35.5627C43.3618 35.8423 43.2046 36.1146 43.0341 36.3786C42.4263 37.3202 41.6024 38.1024 40.366 38.9716C39.1217 39.8463 37.4899 40.789 35.2763 42.067C33.0627 43.345 31.4304 44.2869 30.0507 44.9271C28.6798 45.5633 27.5904 45.8857 26.4711 45.9413C26.1572 45.9569 25.8428 45.9569 25.5289 45.9413C24.4096 45.8857 23.3202 45.5633 21.9493 44.9271C20.5696 44.2869 18.9373 43.345 16.7237 42.067C14.5101 40.789 12.8783 39.8463 11.634 38.9716C10.3976 38.1024 9.57366 37.3202 8.96586 36.3786C8.79544 36.1146 8.63822 35.8423 8.49478 35.5627C7.98324 34.5655 7.71778 33.4609 7.58326 31.9555C7.4479 30.4406 7.44744 28.556 7.44744 26C7.44744 23.444 7.4479 21.5594 7.58326 20.0445C7.71778 18.5391 7.98324 17.4345 8.49478 16.4373C8.63822 16.1577 8.79544 15.8854 8.96586 15.6214C9.57366 14.6798 10.3976 13.8976 11.634 13.0284C12.8783 12.1537 14.5101 11.211 16.7237 9.93301Z" stroke="url(#paint0_linear_227_1619)" shape-rendering="crispEdges"/>
</g>
<path d="M25.8555 15.9968C25.8555 15.9968 30.9255 23.5968 32.3655 27.5568C32.5055 27.9368 32.7455 28.6568 32.7355 29.6068C32.7255 31.5968 31.6055 33.6468 29.8955 34.8368C27.4255 36.5468 23.8655 36.3568 21.5755 34.3968C20.0855 33.1168 19.2955 31.1968 19.2655 29.4668C19.2455 28.5268 19.4555 27.7968 19.6055 27.3468C20.8755 23.4168 25.8555 15.9968 25.8555 15.9968Z" fill="url(#paint1_radial_227_1619)"/>
</g>
<path d="M54.544 32.5H52.4474L57.1584 19.4091H59.4403L64.1513 32.5H62.0547L58.3537 21.7869H58.2514L54.544 32.5ZM54.8956 27.3736H61.6967V29.0355H54.8956V27.3736ZM68.0169 19.4091V32.5H66.0417V19.4091H68.0169ZM70.8933 32.5V19.4091H75.5595C76.5737 19.4091 77.4153 19.5838 78.0843 19.9332C78.7576 20.2827 79.2605 20.7663 79.5929 21.3842C79.9252 21.9979 80.0914 22.7074 80.0914 23.5128C80.0914 24.3139 79.9231 25.0192 79.5865 25.6286C79.2541 26.2337 78.7512 26.7045 78.0779 27.0412C77.4089 27.3778 76.5673 27.5462 75.5531 27.5462H72.0183V25.8459H75.3741C76.0133 25.8459 76.5332 25.7543 76.9338 25.571C77.3386 25.3878 77.6348 25.1214 77.8223 24.772C78.0098 24.4226 78.1035 24.0028 78.1035 23.5128C78.1035 23.0185 78.0076 22.5902 77.8159 22.228C77.6284 21.8658 77.3322 21.5888 76.9274 21.397C76.5268 21.201 76.0005 21.103 75.3485 21.103H72.8684V32.5H70.8933ZM77.3556 26.5938L80.59 32.5H78.34L75.1696 26.5938H77.3556ZM96.1179 23.5447C95.9943 23.157 95.8281 22.8097 95.6193 22.5028C95.4148 22.1918 95.1697 21.9276 94.8842 21.7102C94.5987 21.4886 94.2727 21.3203 93.9062 21.2053C93.544 21.0902 93.1456 21.0327 92.7109 21.0327C91.9737 21.0327 91.3089 21.2223 90.7166 21.6016C90.1243 21.9808 89.6555 22.5369 89.3104 23.2699C88.9695 23.9986 88.799 24.8913 88.799 25.9482C88.799 27.0092 88.9716 27.9062 89.3168 28.6392C89.6619 29.3722 90.1349 29.9283 90.7358 30.3075C91.3366 30.6868 92.0206 30.8764 92.7876 30.8764C93.4993 30.8764 94.1193 30.7315 94.6477 30.4418C95.1804 30.152 95.5916 29.7429 95.8814 29.2145C96.1754 28.6818 96.3224 28.0554 96.3224 27.3352L96.8338 27.4311H93.0881V25.8011H98.2337V27.2905C98.2337 28.3899 97.9993 29.3445 97.5305 30.1541C97.0661 30.9595 96.4226 31.5817 95.6001 32.0206C94.782 32.4595 93.8445 32.679 92.7876 32.679C91.603 32.679 90.5632 32.4062 89.6683 31.8608C88.7777 31.3153 88.0831 30.5419 87.5845 29.5405C87.0859 28.5348 86.8366 27.3416 86.8366 25.9609C86.8366 24.9169 86.9815 23.9794 87.2713 23.1484C87.5611 22.3175 87.968 21.6122 88.4922 21.0327C89.0206 20.4489 89.6406 20.0036 90.3523 19.6967C91.0682 19.3857 91.8501 19.2301 92.6982 19.2301C93.4055 19.2301 94.0639 19.3345 94.6733 19.5433C95.2869 19.7521 95.8324 20.0483 96.3097 20.4318C96.7912 20.8153 97.1896 21.2713 97.505 21.7997C97.8203 22.3239 98.0334 22.9055 98.1442 23.5447H96.1179ZM100.741 32.5V19.4091H108.948V21.1094H102.716V25.098H108.52V26.7919H102.716V30.7997H109.025V32.5H100.741ZM122.153 19.4091V32.5H120.337L113.683 22.8991H113.562V32.5H111.587V19.4091H113.415L120.075 29.0227H120.197V19.4091H122.153Z" fill="white"/>
<defs>
<filter id="filter0_bddd_227_1619" x="-13.0525" y="-14.4529" width="78.105" height="80.9058" filterUnits="userSpaceOnUse" color-interpolation-filters="sRGB">
<feFlood flood-opacity="0" result="BackgroundImageFix"/>
<feGaussianBlur in="BackgroundImageFix" stdDeviation="10"/>
<feComposite in2="SourceAlpha" operator="in" result="effect1_backgroundBlur_227_1619"/>
<feColorMatrix in="SourceAlpha" type="matrix" values="0 0 0 0 0 0 0 0 0 0 0 0 0 0 0 0 0 0 127 0" result="hardAlpha"/>
<feOffset dy="10"/>
<feGaussianBlur stdDeviation="5"/>
<feComposite in2="hardAlpha" operator="out"/>
<feColorMatrix type="matrix" values="0 0 0 0 0 0 0 0 0 0 0 0 0 0 0 0 0 0 0.1 0"/>
<feBlend mode="normal" in2="effect1_backgroundBlur_227_1619" result="effect2_dropShadow_227_1619"/>
<feColorMatrix in="SourceAlpha" type="matrix" values="0 0 0 0 0 0 0 0 0 0 0 0 0 0 0 0 0 0 127 0" result="hardAlpha"/>
<feOffset dy="4"/>
<feGaussianBlur stdDeviation="2"/>
<feComposite in2="hardAlpha" operator="out"/>
<feColorMatrix type="matrix" values="0 0 0 0 0 0 0 0 0 0 0 0 0 0 0 0 0 0 0.05 0"/>
<feBlend mode="normal" in2="effect2_dropShadow_227_1619" result="effect3_dropShadow_227_1619"/>
<feColorMatrix in="SourceAlpha" type="matrix" values="0 0 0 0 0 0 0 0 0 0 0 0 0 0 0 0 0 0 127 0" result="hardAlpha"/>
<feOffset dy="1"/>
<feComposite in2="hardAlpha" operator="out"/>
<feColorMatrix type="matrix" values="0 0 0 0 0 0 0 0 0 0 0 0 0 0 0 0 0 0 0.05 0"/>
<feBlend mode="normal" in2="effect3_dropShadow_227_1619" result="effect4_dropShadow_227_1619"/>
<feBlend mode="normal" in="SourceGraphic" in2="effect4_dropShadow_227_1619" result="shape"/>
</filter>
<linearGradient id="paint0_linear_227_1619" x1="26" y1="4" x2="26" y2="48" gradientUnits="userSpaceOnUse">
<stop stop-color="#00B9FE"/>
<stop offset="0.335" stop-color="#00B9FE" stop-opacity="0"/>
<stop offset="0.71" stop-color="#00B9FE" stop-opacity="0"/>
<stop offset="1" stop-color="#00B9FE"/>
</linearGradient>
<radialGradient id="paint1_radial_227_1619" cx="0" cy="0" r="1" gradientUnits="userSpaceOnUse" gradientTransform="translate(24.9307 23.2704) rotate(77.9689) scale(11.9585 26.0832)">
<stop stop-color="#96DFFF"/>
<stop offset="1" stop-color="#006D9D"/>
</radialGradient>
<clipPath id="clip0_227_1619">
<rect width="44" height="44" fill="white" transform="translate(4 4)"/>
</clipPath>
</defs>
</svg>
