<svg width="20" height="20" viewBox="0 0 20 20" fill="none" xmlns="http://www.w3.org/2000/svg">
<path d="M9.36576 19.0585L9.36578 19.0585C9.39276 19.0741 9.41434 19.0864 9.43014 19.0953L9.43192 19.0963L9.45519 19.1093L9.45806 19.1109C9.79491 19.2958 10.2058 19.2932 10.5391 19.1124L10.5391 19.1124L10.5441 19.1096L10.568 19.0963L10.5699 19.0953C10.5857 19.0864 10.6072 19.0741 10.6342 19.0585L10.6342 19.0585C10.6882 19.0272 10.764 18.9824 10.8584 18.9242C11.0471 18.808 11.3113 18.6381 11.6257 18.416C12.2526 17.9731 13.0896 17.3157 13.9298 16.4555C15.5959 14.7496 17.375 12.1386 17.375 8.75C17.375 4.6769 14.0731 1.375 10 1.375C5.9269 1.375 2.625 4.6769 2.625 8.75C2.625 12.1386 4.40408 14.7496 6.07018 16.4555C6.91038 17.3157 7.74736 17.9731 8.37433 18.416C8.68875 18.6381 8.95287 18.808 9.14159 18.9242C9.23603 18.9824 9.31179 19.0272 9.36576 19.0585ZM12 8.75C12 9.85457 11.1046 10.75 10 10.75C8.89543 10.75 8 9.85457 8 8.75C8 7.64543 8.89543 6.75 10 6.75C11.1046 6.75 12 7.64543 12 8.75Z" stroke="#01A1DE"/>
</svg>
