<svg width="44" height="45" viewBox="0 0 44 45" fill="none" xmlns="http://www.w3.org/2000/svg">
<g clip-path="url(#clip0_227_1968)">
<path d="M12.7237 6.43301C14.9373 5.15499 16.5696 4.21312 17.9493 3.57288C19.3202 2.93668 20.4096 2.61427 21.5289 2.55869C21.8428 2.54311 22.1572 2.54311 22.4711 2.55869C23.5904 2.61427 24.6798 2.93668 26.0507 3.57288C27.4304 4.21312 29.0627 5.15499 31.2763 6.43301C33.4899 7.71104 35.1217 8.6537 36.366 9.5284C37.6024 10.3976 38.4263 11.1798 39.0341 12.1214C39.2046 12.3854 39.3618 12.6577 39.5052 12.9373C40.0168 13.9345 40.2822 15.0391 40.4167 16.5445C40.5521 18.0594 40.5526 19.944 40.5526 22.5C40.5526 25.056 40.5521 26.9406 40.4167 28.4555C40.2822 29.9609 40.0168 31.0655 39.5052 32.0627C39.3618 32.3423 39.2046 32.6146 39.0341 32.8786C38.4263 33.8202 37.6024 34.6024 36.366 35.4716C35.1217 36.3463 33.4899 37.289 31.2763 38.567C29.0627 39.845 27.4304 40.7869 26.0507 41.4271C24.6798 42.0633 23.5904 42.3857 22.4711 42.4413C22.1572 42.4569 21.8428 42.4569 21.5289 42.4413C20.4096 42.3857 19.3202 42.0633 17.9493 41.4271C16.5696 40.7869 14.9373 39.845 12.7237 38.567C10.5101 37.289 8.87829 36.3463 7.634 35.4716C6.39755 34.6024 5.57366 33.8202 4.96586 32.8786C4.79544 32.6146 4.63822 32.3423 4.49478 32.0627C3.98324 31.0655 3.71778 29.9609 3.58326 28.4555C3.4479 26.9406 3.44744 25.056 3.44744 22.5C3.44744 19.944 3.4479 18.0594 3.58326 16.5445C3.71778 15.0391 3.98324 13.9345 4.49478 12.9373C4.63822 12.6577 4.79544 12.3854 4.96586 12.1214C5.57366 11.1798 6.39755 10.3976 7.634 9.5284C8.87829 8.6537 10.5101 7.71104 12.7237 6.43301Z" fill="black" fill-opacity="0.6" stroke="url(#paint0_linear_227_1968)"/>
<path d="M21.8555 12.4968C21.8555 12.4968 26.9255 20.0968 28.3655 24.0568C28.5055 24.4368 28.7455 25.1568 28.7355 26.1068C28.7255 28.0968 27.6055 30.1468 25.8955 31.3368C23.4255 33.0468 19.8655 32.8568 17.5755 30.8968C16.0855 29.6168 15.2955 27.6968 15.2655 25.9668C15.2455 25.0268 15.4555 24.2968 15.6055 23.8468C16.8755 19.9168 21.8555 12.4968 21.8555 12.4968Z" fill="url(#paint1_radial_227_1968)"/>
</g>
<defs>
<linearGradient id="paint0_linear_227_1968" x1="22" y1="0.5" x2="22" y2="44.5" gradientUnits="userSpaceOnUse">
<stop stop-color="#00B9FE"/>
<stop offset="0.335" stop-color="#00B9FE" stop-opacity="0"/>
<stop offset="0.71" stop-color="#00B9FE" stop-opacity="0"/>
<stop offset="1" stop-color="#00B9FE"/>
</linearGradient>
<radialGradient id="paint1_radial_227_1968" cx="0" cy="0" r="1" gradientUnits="userSpaceOnUse" gradientTransform="translate(20.9307 19.7704) rotate(77.9689) scale(11.9585 26.0832)">
<stop stop-color="#96DFFF"/>
<stop offset="1" stop-color="#006D9D"/>
</radialGradient>
<clipPath id="clip0_227_1968">
<rect width="44" height="44" fill="white" transform="translate(0 0.5)"/>
</clipPath>
</defs>
</svg>
