<svg width="88" height="89" viewBox="0 0 88 89" fill="none" xmlns="http://www.w3.org/2000/svg">
<circle cx="44" cy="44.2876" r="44" fill="#35B6FE" fill-opacity="0.1"/>
<circle cx="44" cy="44.2876" r="43.5" stroke="#55C2FF" stroke-opacity="0.3"/>
<path fill-rule="evenodd" clip-rule="evenodd" d="M61.0379 48.0228C57.2967 38.5218 44.1246 20.2876 44.1246 20.2876C44.1246 20.2876 31.1863 38.0899 27.8868 47.5189C27.4971 48.5986 26.9515 50.35 27.0035 52.6053C27.0814 56.756 29.1339 61.3625 33.005 64.4335C38.9545 69.136 48.2036 69.5919 54.6207 65.4892C59.0634 62.6341 61.9732 57.7157 61.9992 52.9412C62.0252 50.6619 61.4017 48.9345 61.0379 48.0228ZM43.75 45.0376C43.581 45.0376 43.4131 45.0365 43.2464 45.0344C40.748 45.0026 38.5256 44.7357 36.9225 44.335C36.0599 44.1193 35.4325 43.8784 35.0449 43.6494C34.973 43.607 34.9166 43.5695 34.8723 43.5374C34.9165 43.5052 34.9729 43.4678 35.0447 43.4254C35.432 43.1964 36.059 42.9556 36.9215 42.74C38.631 42.3126 41.0457 42.0376 43.75 42.0376C46.4543 42.0376 48.869 42.3126 50.5785 42.74C51.441 42.9556 52.068 43.1964 52.4553 43.4254C52.5271 43.4678 52.5835 43.5052 52.6277 43.5374C52.5834 43.5695 52.527 43.607 52.4551 43.6494C52.0675 43.8784 51.4401 44.1193 50.5775 44.335C48.9947 44.7306 46.8081 44.9958 44.3482 45.0331C44.1505 45.0361 43.9511 45.0376 43.75 45.0376ZM54.75 48.0376V43.5376C54.75 42.6206 54.0308 42.0333 53.473 41.7036C52.8482 41.3344 52.0108 41.0365 51.0636 40.7997C49.1539 40.3223 46.5686 40.0376 43.75 40.0376C40.9314 40.0376 38.3461 40.3223 36.4364 40.7997C35.4892 41.0365 34.6518 41.3344 34.027 41.7036C33.4692 42.0333 32.75 42.6206 32.75 43.5376V48.0376V53.0376V58.0376C32.75 58.9371 33.3528 59.5933 33.9577 60.0223C34.5884 60.4696 35.4359 60.8312 36.3929 61.118C38.3196 61.6955 40.9209 62.0376 43.75 62.0376C46.5791 62.0376 49.1804 61.6955 51.1071 61.118C52.0641 60.8312 52.9116 60.4696 53.5423 60.0223C54.1472 59.5933 54.75 58.9371 54.75 58.0376V53.0376V48.0376ZM51.0636 46.2755C49.2919 46.7184 46.9387 46.9954 44.3572 47.0332C44.1561 47.0361 43.9537 47.0376 43.75 47.0376C43.5738 47.0376 43.3986 47.0365 43.2244 47.0343C40.6109 47.0013 38.2268 46.7231 36.4364 46.2755C35.8179 46.1209 35.2462 45.9402 34.75 45.7307V48.0238C34.7582 48.0483 34.8133 48.1772 35.1148 48.391C35.4966 48.6618 36.1141 48.9465 36.9671 49.2022C38.6604 49.7097 41.0591 50.0376 43.75 50.0376C46.4409 50.0376 48.8396 49.7097 50.5329 49.2022C51.3859 48.9465 52.0034 48.6618 52.3852 48.391C52.6867 48.1772 52.7418 48.0483 52.75 48.0238V45.7307C52.2538 45.9402 51.6821 46.1209 51.0636 46.2755ZM34.75 50.4884V53.0238C34.7582 53.0483 34.8133 53.1772 35.1148 53.391C35.4966 53.6618 36.1141 53.9465 36.9671 54.2022C38.6604 54.7097 41.0591 55.0376 43.75 55.0376C46.4409 55.0376 48.8396 54.7097 50.5329 54.2022C51.3859 53.9465 52.0034 53.6618 52.3852 53.391C52.6867 53.1772 52.7418 53.0483 52.75 53.0238V50.4884L52.747 50.4899C52.2606 50.7303 51.7052 50.9387 51.1071 51.118C49.1804 51.6955 46.5791 52.0376 43.75 52.0376C40.9209 52.0376 38.3196 51.6955 36.3929 51.118C35.7935 50.9384 35.2371 50.7294 34.75 50.4884ZM34.75 58.0238V55.4884C35.2371 55.7294 35.7935 55.9384 36.3929 56.118C38.3196 56.6955 40.9209 57.0376 43.75 57.0376C46.5791 57.0376 49.1804 56.6955 51.1071 56.118C51.7052 55.9387 52.2606 55.7303 52.747 55.4899L52.75 55.4884V58.0238C52.7418 58.0483 52.6867 58.1772 52.3852 58.391C52.0034 58.6618 51.3859 58.9465 50.5329 59.2022C48.8396 59.7097 46.4409 60.0376 43.75 60.0376C41.0591 60.0376 38.6604 59.7097 36.9671 59.2022C36.1141 58.9465 35.4966 58.6618 35.1148 58.391C34.8133 58.1772 34.7582 58.0483 34.75 58.0238Z" fill="url(#paint0_linear_227_1947)"/>
<defs>
<linearGradient id="paint0_linear_227_1947" x1="40.125" y1="20.2876" x2="40.0333" y2="68.2875" gradientUnits="userSpaceOnUse">
<stop stop-color="#68CCFF"/>
<stop offset="1" stop-color="#6970A7"/>
</linearGradient>
</defs>
</svg>
