<svg width="88" height="89" viewBox="0 0 88 89" fill="none" xmlns="http://www.w3.org/2000/svg">
<circle cx="44" cy="44.2876" r="44" fill="#35B6FE" fill-opacity="0.1"/>
<circle cx="44" cy="44.2876" r="43.5" stroke="#55C2FF" stroke-opacity="0.3"/>
<path fill-rule="evenodd" clip-rule="evenodd" d="M39.2994 24.7967C35.7223 29.3881 34.9486 30.7046 34.6319 32.74C34.2498 35.1964 35.6551 37.8273 37.9514 38.9545C39.7025 39.8141 41.4618 39.7755 43.4361 38.8345C45.3095 37.9415 46.526 35.873 46.526 33.5806C46.526 32.0064 46.0521 30.6271 44.9238 28.9179C44.0268 27.559 40.8067 23.3518 40.6149 23.288C40.5537 23.2677 39.9618 23.9467 39.2994 24.7967ZM36.3051 34.6373C36.5563 36.2462 38.1153 37.7 39.6064 37.7157C40.2613 37.7227 41.1954 37.5072 41.1954 37.3493C41.1954 37.297 41.1495 37.2825 41.0937 37.317C40.908 37.4314 39.4203 37.1643 38.8942 36.9222C38.0803 36.5476 37.3704 35.9176 36.7847 35.05C36.2695 34.2868 36.2475 34.268 36.3051 34.6373ZM47.2436 44.2875C46.8207 44.305 43.8914 44.3609 40.7341 44.4117C34.1791 44.5173 34.4679 44.4772 33.6206 45.4018C32.827 46.2678 32.5943 47.2918 32.9526 48.3406C33.1755 48.9932 33.889 49.7581 34.5547 50.058L35.0959 50.302L42.3999 50.2775L49.7039 50.2531V50.9117V51.5705L47.9868 51.6045C47.0425 51.6232 43.4994 51.649 40.1136 51.6619L33.9574 51.6852L32.5767 50.2778C31.8173 49.5039 30.5972 48.2338 29.8655 47.4555C29.1338 46.6772 28.3222 45.8841 28.0619 45.6932C26.8799 44.826 25.2059 45.031 24.0439 46.1853C23.2957 46.9286 22.9994 47.6475 23 48.7172C23.0009 50.1346 23.2549 50.5161 26.2696 53.6265C26.9518 54.3304 28.202 55.6405 29.0477 56.5379C31.7649 59.421 32.2087 59.8411 32.856 60.1435L33.4557 60.4237H36.6336C38.3814 60.4237 42.9945 60.3839 46.8848 60.3352L53.9581 60.2465L55.6496 61.9659C58.0715 64.4277 58.1927 64.5359 58.93 64.8941C59.7854 65.3096 61.139 65.4112 62.0203 65.1261C63.551 64.6307 64.6935 63.6932 65.3212 62.4174C66.4583 60.1061 66.1673 57.2796 64.4442 53.9007C62.4246 49.9402 59.3648 46.919 55.3083 44.8795L54.0956 44.2698L51.0541 44.2628C49.3812 44.2589 47.6664 44.2699 47.2436 44.2875Z" fill="url(#paint0_linear_227_1917)"/>
<defs>
<linearGradient id="paint0_linear_227_1917" x1="39.125" y1="23.2876" x2="39.0679" y2="65.2876" gradientUnits="userSpaceOnUse">
<stop stop-color="#68CCFF"/>
<stop offset="1" stop-color="#6970A7"/>
</linearGradient>
</defs>
</svg>
